{
	"asset":{
		"generator":"Khronos glTF Blender I/O v4.2.57",
		"version":"2.0"
	},
	"scene":0,
	"scenes":[
		{
			"name":"Scene",
			"nodes":[
				3
			]
		}
	],
	"nodes":[
		{
			"mesh":0,
			"name":"ZCWL_APaQi_LuoXuanJiang1",
			"translation":[
				-0.009482421912252903,
				-3.0685226917266846,
				0.9348286390304565
			]
		},
		{
			"mesh":1,
			"name":"ZCWL_APaQi_LuoXuanJiang2",
			"rotation":[
				3.0517576306010596e-05,
				0,
				0,
				1
			],
			"translation":[
				0.733258068561554,
				7.385714054107666,
				0.7405250668525696
			]
		},
		{
			"children":[
				0,
				1
			],
			"mesh":2,
			"name":"ZCWL_APaQi_JiShen",
			"translation":[
				0.009481810964643955,
				0.31111449003219604,
				0
			]
		},
		{
			"children":[
				2
			],
			"name":"ZCWL_APaQi",
			"rotation":[
				-0.7071068286895752,
				0,
				0,
				0.7071068286895752
			],
			"translation":[
				-0.009481810964643955,
				0,
				0.31111449003219604
			]
		}
	],
	"animations":[
		{
			"channels":[
				{
					"sampler":0,
					"target":{
						"node":2,
						"path":"translation"
					}
				},
				{
					"sampler":1,
					"target":{
						"node":2,
						"path":"rotation"
					}
				},
				{
					"sampler":2,
					"target":{
						"node":2,
						"path":"scale"
					}
				},
				{
					"sampler":3,
					"target":{
						"node":0,
						"path":"translation"
					}
				},
				{
					"sampler":4,
					"target":{
						"node":0,
						"path":"rotation"
					}
				},
				{
					"sampler":5,
					"target":{
						"node":0,
						"path":"scale"
					}
				},
				{
					"sampler":6,
					"target":{
						"node":1,
						"path":"translation"
					}
				},
				{
					"sampler":7,
					"target":{
						"node":1,
						"path":"rotation"
					}
				},
				{
					"sampler":8,
					"target":{
						"node":1,
						"path":"scale"
					}
				}
			],
			"name":"Animation",
			"samplers":[
				{
					"input":12,
					"interpolation":"STEP",
					"output":13
				},
				{
					"input":12,
					"interpolation":"STEP",
					"output":14
				},
				{
					"input":12,
					"interpolation":"STEP",
					"output":15
				},
				{
					"input":12,
					"interpolation":"STEP",
					"output":16
				},
				{
					"input":17,
					"interpolation":"LINEAR",
					"output":18
				},
				{
					"input":12,
					"interpolation":"STEP",
					"output":19
				},
				{
					"input":12,
					"interpolation":"STEP",
					"output":20
				},
				{
					"input":17,
					"interpolation":"LINEAR",
					"output":21
				},
				{
					"input":12,
					"interpolation":"STEP",
					"output":22
				}
			]
		}
	],
	"materials":[
		{
			"alphaMode":"BLEND",
			"doubleSided":true,
			"name":"ZCWL_APaQi.004",
			"normalTexture":{
				"index":0
			},
			"pbrMetallicRoughness":{
				"baseColorTexture":{
					"index":1
				},
				"metallicRoughnessTexture":{
					"index":2
				}
			}
		}
	],
	"meshes":[
		{
			"name":"Mesh.014",
			"primitives":[
				{
					"attributes":{
						"POSITION":0,
						"NORMAL":1,
						"TEXCOORD_0":2
					},
					"indices":3,
					"material":0
				}
			]
		},
		{
			"name":"Mesh.013",
			"primitives":[
				{
					"attributes":{
						"POSITION":4,
						"NORMAL":5,
						"TEXCOORD_0":6
					},
					"indices":7,
					"material":0
				}
			]
		},
		{
			"name":"Mesh.012",
			"primitives":[
				{
					"attributes":{
						"POSITION":8,
						"NORMAL":9,
						"TEXCOORD_0":10
					},
					"indices":11,
					"material":0
				}
			]
		}
	],
	"textures":[
		{
			"sampler":0,
			"source":0
		},
		{
			"sampler":0,
			"source":1
		},
		{
			"sampler":0,
			"source":2
		}
	],
	"images":[
		{
			"mimeType":"image/png",
			"name":"ZCWL_APaQi_N.png",
			"uri":"ZCWL_APaQi_N_png.png"
		},
		{
			"mimeType":"image/png",
			"name":"ZCWL_APaQi__BaseColor.png",
			"uri":"ZCWL_APaQi__BaseColor_png.png"
		},
		{
			"mimeType":"image/png",
			"name":"ZCWL_APaQi_M.png-ZCWL_APaQi_R.png",
			"uri":"ZCWL_APaQi_M_png-ZCWL_APaQi_R_png.png"
		}
	],
	"accessors":[
		{
			"bufferView":0,
			"componentType":5126,
			"count":4971,
			"max":[
				6.430999755859375,
				6.4309983253479,
				1.2906200885772705
			],
			"min":[
				-6.4309983253479,
				-6.4309983253479,
				-1.2906200885772705
			],
			"type":"VEC3"
		},
		{
			"bufferView":1,
			"componentType":5126,
			"count":4971,
			"type":"VEC3"
		},
		{
			"bufferView":2,
			"componentType":5126,
			"count":4971,
			"type":"VEC2"
		},
		{
			"bufferView":3,
			"componentType":5123,
			"count":10269,
			"type":"SCALAR"
		},
		{
			"bufferView":4,
			"componentType":5126,
			"count":1462,
			"max":[
				0.39195066690444946,
				1.491538643836975,
				1.6110949516296387
			],
			"min":[
				-0.39195066690444946,
				-1.491538643836975,
				-1.6110949516296387
			],
			"type":"VEC3"
		},
		{
			"bufferView":5,
			"componentType":5126,
			"count":1462,
			"type":"VEC3"
		},
		{
			"bufferView":6,
			"componentType":5126,
			"count":1462,
			"type":"VEC2"
		},
		{
			"bufferView":7,
			"componentType":5123,
			"count":2814,
			"type":"SCALAR"
		},
		{
			"bufferView":8,
			"componentType":5126,
			"count":12321,
			"max":[
				2.957110643386841,
				8.621562004089355,
				3.609041690826416
			],
			"min":[
				-2.957110643386841,
				-8.621562004089355,
				-3.609041690826416
			],
			"type":"VEC3"
		},
		{
			"bufferView":9,
			"componentType":5126,
			"count":12321,
			"type":"VEC3"
		},
		{
			"bufferView":10,
			"componentType":5126,
			"count":12321,
			"type":"VEC2"
		},
		{
			"bufferView":11,
			"componentType":5123,
			"count":27429,
			"type":"SCALAR"
		},
		{
			"bufferView":12,
			"componentType":5126,
			"count":2,
			"max":[
				3.3666666666666667
			],
			"min":[
				0.03333333333333333
			],
			"type":"SCALAR"
		},
		{
			"bufferView":13,
			"componentType":5126,
			"count":2,
			"type":"VEC3"
		},
		{
			"bufferView":14,
			"componentType":5126,
			"count":2,
			"type":"VEC4"
		},
		{
			"bufferView":15,
			"componentType":5126,
			"count":2,
			"type":"VEC3"
		},
		{
			"bufferView":16,
			"componentType":5126,
			"count":2,
			"type":"VEC3"
		},
		{
			"bufferView":17,
			"componentType":5126,
			"count":101,
			"max":[
				3.3666666666666667
			],
			"min":[
				0.03333333333333333
			],
			"type":"SCALAR"
		},
		{
			"bufferView":18,
			"componentType":5126,
			"count":101,
			"type":"VEC4"
		},
		{
			"bufferView":19,
			"componentType":5126,
			"count":2,
			"type":"VEC3"
		},
		{
			"bufferView":20,
			"componentType":5126,
			"count":2,
			"type":"VEC3"
		},
		{
			"bufferView":21,
			"componentType":5126,
			"count":101,
			"type":"VEC4"
		},
		{
			"bufferView":22,
			"componentType":5126,
			"count":2,
			"type":"VEC3"
		}
	],
	"bufferViews":[
		{
			"buffer":0,
			"byteLength":59652,
			"byteOffset":0,
			"target":34962
		},
		{
			"buffer":0,
			"byteLength":59652,
			"byteOffset":59652,
			"target":34962
		},
		{
			"buffer":0,
			"byteLength":39768,
			"byteOffset":119304,
			"target":34962
		},
		{
			"buffer":0,
			"byteLength":20538,
			"byteOffset":159072,
			"target":34963
		},
		{
			"buffer":0,
			"byteLength":17544,
			"byteOffset":179612,
			"target":34962
		},
		{
			"buffer":0,
			"byteLength":17544,
			"byteOffset":197156,
			"target":34962
		},
		{
			"buffer":0,
			"byteLength":11696,
			"byteOffset":214700,
			"target":34962
		},
		{
			"buffer":0,
			"byteLength":5628,
			"byteOffset":226396,
			"target":34963
		},
		{
			"buffer":0,
			"byteLength":147852,
			"byteOffset":232024,
			"target":34962
		},
		{
			"buffer":0,
			"byteLength":147852,
			"byteOffset":379876,
			"target":34962
		},
		{
			"buffer":0,
			"byteLength":98568,
			"byteOffset":527728,
			"target":34962
		},
		{
			"buffer":0,
			"byteLength":54858,
			"byteOffset":626296,
			"target":34963
		},
		{
			"buffer":0,
			"byteLength":8,
			"byteOffset":681156
		},
		{
			"buffer":0,
			"byteLength":24,
			"byteOffset":681164
		},
		{
			"buffer":0,
			"byteLength":32,
			"byteOffset":681188
		},
		{
			"buffer":0,
			"byteLength":24,
			"byteOffset":681220
		},
		{
			"buffer":0,
			"byteLength":24,
			"byteOffset":681244
		},
		{
			"buffer":0,
			"byteLength":404,
			"byteOffset":681268
		},
		{
			"buffer":0,
			"byteLength":1616,
			"byteOffset":681672
		},
		{
			"buffer":0,
			"byteLength":24,
			"byteOffset":683288
		},
		{
			"buffer":0,
			"byteLength":24,
			"byteOffset":683312
		},
		{
			"buffer":0,
			"byteLength":1616,
			"byteOffset":683336
		},
		{
			"buffer":0,
			"byteLength":24,
			"byteOffset":684952
		}
	],
	"samplers":[
		{
			"magFilter":9729,
			"minFilter":9987
		}
	],
	"buffers":[
		{
			"byteLength":684976,
			"uri":"ZCWL_APaQi.bin"
		}
	]
}
