{
	"asset":{
		"generator":"Khronos glTF Blender I/O v4.2.57",
		"version":"2.0"
	},
	"scene":0,
	"scenes":[
		{
			"name":"Scene",
			"nodes":[
				2
			]
		}
	],
	"nodes":[
		{
			"mesh":0,
			"name":"ZCWL_Zhi20_LuoXuanJiang1",
			"translation":[
				0.1800537109375,
				166.24685668945312,
				391.909423828125
			]
		},
		{
			"mesh":1,
			"name":"ZCWL_Zhi20_LuoXuanJiang2",
			"translation":[
				-31.145751953125,
				203.16259765625,
				-890.4324340820312
			]
		},
		{
			"children":[
				0,
				1
			],
			"mesh":2,
			"name":"ZCWL_Zhi20_JiShen",
			"scale":[
				0.009999999776482582,
				0.009999999776482582,
				0.009999999776482582
			]
		}
	],
	"animations":[
		{
			"channels":[
				{
					"sampler":0,
					"target":{
						"node":0,
						"path":"translation"
					}
				},
				{
					"sampler":1,
					"target":{
						"node":0,
						"path":"rotation"
					}
				},
				{
					"sampler":2,
					"target":{
						"node":0,
						"path":"scale"
					}
				},
				{
					"sampler":3,
					"target":{
						"node":1,
						"path":"translation"
					}
				},
				{
					"sampler":4,
					"target":{
						"node":1,
						"path":"rotation"
					}
				},
				{
					"sampler":5,
					"target":{
						"node":1,
						"path":"scale"
					}
				}
			],
			"name":"Animation",
			"samplers":[
				{
					"input":26,
					"interpolation":"STEP",
					"output":27
				},
				{
					"input":28,
					"interpolation":"LINEAR",
					"output":29
				},
				{
					"input":26,
					"interpolation":"STEP",
					"output":30
				},
				{
					"input":26,
					"interpolation":"STEP",
					"output":31
				},
				{
					"input":28,
					"interpolation":"LINEAR",
					"output":32
				},
				{
					"input":26,
					"interpolation":"LINEAR",
					"output":33
				}
			]
		}
	],
	"materials":[
		{
			"doubleSided":true,
			"name":"ZCWL_Zhi20_2",
			"normalTexture":{
				"index":0
			},
			"pbrMetallicRoughness":{
				"baseColorTexture":{
					"index":1
				},
				"metallicRoughnessTexture":{
					"index":2
				}
			}
		},
		{
			"doubleSided":true,
			"name":"ZCWL_Zhi20_1",
			"normalTexture":{
				"index":3
			},
			"pbrMetallicRoughness":{
				"baseColorTexture":{
					"index":4
				},
				"metallicRoughnessTexture":{
					"index":5
				}
			}
		},
		{
			"alphaMode":"BLEND",
			"doubleSided":true,
			"name":"ZCWL_Zhi20_3",
			"normalTexture":{
				"index":6
			},
			"pbrMetallicRoughness":{
				"baseColorTexture":{
					"index":7
				},
				"metallicRoughnessTexture":{
					"index":8
				}
			}
		}
	],
	"meshes":[
		{
			"name":"Mesh.005",
			"primitives":[
				{
					"attributes":{
						"POSITION":0,
						"NORMAL":1,
						"TEXCOORD_0":2
					},
					"indices":3,
					"material":0
				}
			]
		},
		{
			"name":"Mesh.006",
			"primitives":[
				{
					"attributes":{
						"POSITION":4,
						"NORMAL":5,
						"TEXCOORD_0":6
					},
					"indices":7,
					"material":0
				}
			]
		},
		{
			"name":"Mesh.002",
			"primitives":[
				{
					"attributes":{
						"POSITION":8,
						"NORMAL":9,
						"TEXCOORD_0":10,
						"COLOR_0":11,
						"COLOR_1":12
					},
					"indices":13,
					"material":1
				},
				{
					"attributes":{
						"POSITION":14,
						"NORMAL":15,
						"TEXCOORD_0":16,
						"COLOR_0":17,
						"COLOR_1":18
					},
					"indices":19,
					"material":0
				},
				{
					"attributes":{
						"POSITION":20,
						"NORMAL":21,
						"TEXCOORD_0":22,
						"COLOR_0":23,
						"COLOR_1":24
					},
					"indices":25,
					"material":2
				}
			]
		}
	],
	"textures":[
		{
			"sampler":0,
			"source":0
		},
		{
			"sampler":0,
			"source":1
		},
		{
			"sampler":0,
			"source":2
		},
		{
			"sampler":0,
			"source":3
		},
		{
			"sampler":0,
			"source":4
		},
		{
			"sampler":0,
			"source":5
		},
		{
			"sampler":0,
			"source":6
		},
		{
			"sampler":0,
			"source":7
		},
		{
			"sampler":0,
			"source":8
		}
	],
	"images":[
		{
			"mimeType":"image/png",
			"name":"ZCWL_Zhi20_2__N.png",
			"uri":"ZCWL_Zhi20_2__N_png.png"
		},
		{
			"mimeType":"image/png",
			"name":"ZCWL_Zhi20_2__BaseColor.png",
			"uri":"ZCWL_Zhi20_2__BaseColor_png.png"
		},
		{
			"mimeType":"image/png",
			"name":"ZCWL_Zhi20_2__M.png-ZCWL_Zhi20_2__R.png",
			"uri":"ZCWL_Zhi20_2__M_png-ZCWL_Zhi20_2__R_png.png"
		},
		{
			"mimeType":"image/png",
			"name":"ZCWL_Zhi20_1__N.png",
			"uri":"ZCWL_Zhi20_1__N_png.png"
		},
		{
			"mimeType":"image/png",
			"name":"ZCWL_Zhi20_1__BaseColor.png",
			"uri":"ZCWL_Zhi20_1__BaseColor_png.png"
		},
		{
			"mimeType":"image/png",
			"name":"ZCWL_Zhi20_1__M.png-ZCWL_Zhi20_1__R",
			"uri":"ZCWL_Zhi20_1__M_png-ZCWL_Zhi20_1__R.png"
		},
		{
			"mimeType":"image/png",
			"name":"ZCWL_Zhi20_3__N.png",
			"uri":"ZCWL_Zhi20_3__N_png.png"
		},
		{
			"mimeType":"image/png",
			"name":"ZCWL_Zhi20_3__BaseColor.png",
			"uri":"ZCWL_Zhi20_3__BaseColor_png.png"
		},
		{
			"mimeType":"image/png",
			"name":"ZCWL_Zhi20_3__M.png-ZCWL_Zhi20_3__R.png",
			"uri":"ZCWL_Zhi20_3__M_png-ZCWL_Zhi20_3__R_png.png"
		}
	],
	"accessors":[
		{
			"bufferView":0,
			"componentType":5126,
			"count":6999,
			"max":[
				975.3912963867188,
				54.66581726074219,
				1000.23681640625
			],
			"min":[
				-940.2728271484375,
				-54.66581726074219,
				-860.2127075195312
			],
			"type":"VEC3"
		},
		{
			"bufferView":1,
			"componentType":5126,
			"count":6999,
			"type":"VEC3"
		},
		{
			"bufferView":2,
			"componentType":5126,
			"count":6999,
			"type":"VEC2"
		},
		{
			"bufferView":3,
			"componentType":5123,
			"count":20544,
			"type":"SCALAR"
		},
		{
			"bufferView":4,
			"componentType":5126,
			"count":2178,
			"max":[
				39.9715576171875,
				218.3011474609375,
				221.927001953125
			],
			"min":[
				-39.9716796875,
				-218.30116271972656,
				-221.927001953125
			],
			"type":"VEC3"
		},
		{
			"bufferView":5,
			"componentType":5126,
			"count":2178,
			"type":"VEC3"
		},
		{
			"bufferView":6,
			"componentType":5126,
			"count":2178,
			"type":"VEC2"
		},
		{
			"bufferView":7,
			"componentType":5123,
			"count":6462,
			"type":"SCALAR"
		},
		{
			"bufferView":8,
			"componentType":5126,
			"count":2459,
			"max":[
				164.267578125,
				49.185951232910156,
				968.3208618164062
			],
			"min":[
				-164.2081298828125,
				-183.00909423828125,
				154.07772827148438
			],
			"type":"VEC3"
		},
		{
			"bufferView":9,
			"componentType":5126,
			"count":2459,
			"type":"VEC3"
		},
		{
			"bufferView":10,
			"componentType":5126,
			"count":2459,
			"type":"VEC2"
		},
		{
			"bufferView":11,
			"componentType":5121,
			"count":2459,
			"normalized":true,
			"type":"VEC4"
		},
		{
			"bufferView":12,
			"componentType":5126,
			"count":2459,
			"type":"VEC3"
		},
		{
			"bufferView":13,
			"componentType":5123,
			"count":7206,
			"type":"SCALAR"
		},
		{
			"bufferView":14,
			"componentType":5126,
			"count":11769,
			"max":[
				303.4871826171875,
				249.41180419921875,
				971.6648559570312
			],
			"min":[
				-303.4871826171875,
				-249.41180419921875,
				-971.6648559570312
			],
			"type":"VEC3"
		},
		{
			"bufferView":15,
			"componentType":5126,
			"count":11769,
			"type":"VEC3"
		},
		{
			"bufferView":16,
			"componentType":5126,
			"count":11769,
			"type":"VEC2"
		},
		{
			"bufferView":17,
			"componentType":5121,
			"count":11769,
			"normalized":true,
			"type":"VEC4"
		},
		{
			"bufferView":18,
			"componentType":5126,
			"count":11769,
			"type":"VEC3"
		},
		{
			"bufferView":19,
			"componentType":5123,
			"count":35703,
			"type":"SCALAR"
		},
		{
			"bufferView":20,
			"componentType":5126,
			"count":294,
			"max":[
				166.00146484375,
				48.311241149902344,
				935.5961303710938
			],
			"min":[
				-165.9420166015625,
				-157.05429077148438,
				301.37713623046875
			],
			"type":"VEC3"
		},
		{
			"bufferView":21,
			"componentType":5126,
			"count":294,
			"type":"VEC3"
		},
		{
			"bufferView":22,
			"componentType":5126,
			"count":294,
			"type":"VEC2"
		},
		{
			"bufferView":23,
			"componentType":5121,
			"count":294,
			"normalized":true,
			"type":"VEC4"
		},
		{
			"bufferView":24,
			"componentType":5126,
			"count":294,
			"type":"VEC3"
		},
		{
			"bufferView":25,
			"componentType":5123,
			"count":1050,
			"type":"SCALAR"
		},
		{
			"bufferView":26,
			"componentType":5126,
			"count":2,
			"max":[
				3.3666666666666667
			],
			"min":[
				0.03333333333333333
			],
			"type":"SCALAR"
		},
		{
			"bufferView":27,
			"componentType":5126,
			"count":2,
			"type":"VEC3"
		},
		{
			"bufferView":28,
			"componentType":5126,
			"count":101,
			"max":[
				3.3666666666666667
			],
			"min":[
				0.03333333333333333
			],
			"type":"SCALAR"
		},
		{
			"bufferView":29,
			"componentType":5126,
			"count":101,
			"type":"VEC4"
		},
		{
			"bufferView":30,
			"componentType":5126,
			"count":2,
			"type":"VEC3"
		},
		{
			"bufferView":31,
			"componentType":5126,
			"count":2,
			"type":"VEC3"
		},
		{
			"bufferView":32,
			"componentType":5126,
			"count":101,
			"type":"VEC4"
		},
		{
			"bufferView":33,
			"componentType":5126,
			"count":2,
			"type":"VEC3"
		}
	],
	"bufferViews":[
		{
			"buffer":0,
			"byteLength":83988,
			"byteOffset":0,
			"target":34962
		},
		{
			"buffer":0,
			"byteLength":83988,
			"byteOffset":83988,
			"target":34962
		},
		{
			"buffer":0,
			"byteLength":55992,
			"byteOffset":167976,
			"target":34962
		},
		{
			"buffer":0,
			"byteLength":41088,
			"byteOffset":223968,
			"target":34963
		},
		{
			"buffer":0,
			"byteLength":26136,
			"byteOffset":265056,
			"target":34962
		},
		{
			"buffer":0,
			"byteLength":26136,
			"byteOffset":291192,
			"target":34962
		},
		{
			"buffer":0,
			"byteLength":17424,
			"byteOffset":317328,
			"target":34962
		},
		{
			"buffer":0,
			"byteLength":12924,
			"byteOffset":334752,
			"target":34963
		},
		{
			"buffer":0,
			"byteLength":29508,
			"byteOffset":347676,
			"target":34962
		},
		{
			"buffer":0,
			"byteLength":29508,
			"byteOffset":377184,
			"target":34962
		},
		{
			"buffer":0,
			"byteLength":19672,
			"byteOffset":406692,
			"target":34962
		},
		{
			"buffer":0,
			"byteLength":9836,
			"byteOffset":426364,
			"target":34962
		},
		{
			"buffer":0,
			"byteLength":29508,
			"byteOffset":436200,
			"target":34962
		},
		{
			"buffer":0,
			"byteLength":14412,
			"byteOffset":465708,
			"target":34963
		},
		{
			"buffer":0,
			"byteLength":141228,
			"byteOffset":480120,
			"target":34962
		},
		{
			"buffer":0,
			"byteLength":141228,
			"byteOffset":621348,
			"target":34962
		},
		{
			"buffer":0,
			"byteLength":94152,
			"byteOffset":762576,
			"target":34962
		},
		{
			"buffer":0,
			"byteLength":47076,
			"byteOffset":856728,
			"target":34962
		},
		{
			"buffer":0,
			"byteLength":141228,
			"byteOffset":903804,
			"target":34962
		},
		{
			"buffer":0,
			"byteLength":71406,
			"byteOffset":1045032,
			"target":34963
		},
		{
			"buffer":0,
			"byteLength":3528,
			"byteOffset":1116440,
			"target":34962
		},
		{
			"buffer":0,
			"byteLength":3528,
			"byteOffset":1119968,
			"target":34962
		},
		{
			"buffer":0,
			"byteLength":2352,
			"byteOffset":1123496,
			"target":34962
		},
		{
			"buffer":0,
			"byteLength":1176,
			"byteOffset":1125848,
			"target":34962
		},
		{
			"buffer":0,
			"byteLength":3528,
			"byteOffset":1127024,
			"target":34962
		},
		{
			"buffer":0,
			"byteLength":2100,
			"byteOffset":1130552,
			"target":34963
		},
		{
			"buffer":0,
			"byteLength":8,
			"byteOffset":1132652
		},
		{
			"buffer":0,
			"byteLength":24,
			"byteOffset":1132660
		},
		{
			"buffer":0,
			"byteLength":404,
			"byteOffset":1132684
		},
		{
			"buffer":0,
			"byteLength":1616,
			"byteOffset":1133088
		},
		{
			"buffer":0,
			"byteLength":24,
			"byteOffset":1134704
		},
		{
			"buffer":0,
			"byteLength":24,
			"byteOffset":1134728
		},
		{
			"buffer":0,
			"byteLength":1616,
			"byteOffset":1134752
		},
		{
			"buffer":0,
			"byteLength":24,
			"byteOffset":1136368
		}
	],
	"samplers":[
		{
			"magFilter":9729,
			"minFilter":9987
		}
	],
	"buffers":[
		{
			"byteLength":1136392,
			"uri":"ZCWL_Zhi20_JiShen.bin"
		}
	]
}
