{
	"asset":{
		"generator":"Khronos glTF Blender I/O v4.2.57",
		"version":"2.0"
	},
	"scene":0,
	"scenes":[
		{
			"name":"Scene",
			"nodes":[
				1
			]
		}
	],
	"nodes":[
		{
			"mesh":0,
			"name":"ZCWL_05ATanKe_PaoTa",
			"translation":[
				184.47735595703125,
				-0.8302593231201172,
				-212.13697814941406
			]
		},
		{
			"children":[
				0
			],
			"mesh":1,
			"name":"ZCWL_05ATanKe_CheShen",
			"rotation":[
				0.70710688829422,
				0,
				0,
				0.7071066498756409
			],
			"scale":[
				0.009999999776482582,
				0.009999999776482582,
				0.009999999776482582
			]
		}
	],
	"animations":[
		{
			"channels":[
				{
					"sampler":0,
					"target":{
						"node":1,
						"path":"translation"
					}
				},
				{
					"sampler":1,
					"target":{
						"node":1,
						"path":"rotation"
					}
				},
				{
					"sampler":2,
					"target":{
						"node":1,
						"path":"scale"
					}
				},
				{
					"sampler":3,
					"target":{
						"node":0,
						"path":"translation"
					}
				},
				{
					"sampler":4,
					"target":{
						"node":0,
						"path":"rotation"
					}
				},
				{
					"sampler":5,
					"target":{
						"node":0,
						"path":"scale"
					}
				}
			],
			"name":"Animation",
			"samplers":[
				{
					"input":35,
					"interpolation":"STEP",
					"output":36
				},
				{
					"input":35,
					"interpolation":"STEP",
					"output":37
				},
				{
					"input":35,
					"interpolation":"STEP",
					"output":38
				},
				{
					"input":39,
					"interpolation":"STEP",
					"output":40
				},
				{
					"input":41,
					"interpolation":"LINEAR",
					"output":42
				},
				{
					"input":39,
					"interpolation":"STEP",
					"output":43
				}
			]
		}
	],
	"materials":[
		{
			"doubleSided":true,
			"name":"ZCWL_05ATanKe_BaseColor1",
			"normalTexture":{
				"index":0
			},
			"pbrMetallicRoughness":{
				"baseColorTexture":{
					"index":1
				},
				"metallicRoughnessTexture":{
					"index":2
				}
			}
		},
		{
			"doubleSided":true,
			"name":"ZCWL_05ATanKe_BaseColor2",
			"normalTexture":{
				"index":3
			},
			"pbrMetallicRoughness":{
				"baseColorTexture":{
					"index":4
				},
				"metallicRoughnessTexture":{
					"index":5
				}
			}
		},
		{
			"alphaMode":"BLEND",
			"doubleSided":true,
			"name":"ZCWL_05ATanKe_BaseColor3",
			"normalTexture":{
				"index":6
			},
			"pbrMetallicRoughness":{
				"baseColorTexture":{
					"index":7
				},
				"metallicRoughnessTexture":{
					"index":8
				}
			}
		}
	],
	"meshes":[
		{
			"name":"Mesh.004",
			"primitives":[
				{
					"attributes":{
						"POSITION":0,
						"NORMAL":1,
						"TEXCOORD_0":2,
						"TEXCOORD_1":3,
						"COLOR_0":4,
						"COLOR_1":5
					},
					"indices":6,
					"material":0
				},
				{
					"attributes":{
						"POSITION":7,
						"NORMAL":8,
						"TEXCOORD_0":9,
						"TEXCOORD_1":10,
						"COLOR_0":11,
						"COLOR_1":12
					},
					"indices":13,
					"material":1
				}
			]
		},
		{
			"name":"Mesh.003",
			"primitives":[
				{
					"attributes":{
						"POSITION":14,
						"NORMAL":15,
						"TEXCOORD_0":16,
						"TEXCOORD_1":17,
						"COLOR_0":18,
						"COLOR_1":19
					},
					"indices":20,
					"material":1
				},
				{
					"attributes":{
						"POSITION":21,
						"NORMAL":22,
						"TEXCOORD_0":23,
						"TEXCOORD_1":24,
						"COLOR_0":25,
						"COLOR_1":26
					},
					"indices":27,
					"material":0
				},
				{
					"attributes":{
						"POSITION":28,
						"NORMAL":29,
						"TEXCOORD_0":30,
						"TEXCOORD_1":31,
						"COLOR_0":32,
						"COLOR_1":33
					},
					"indices":34,
					"material":2
				}
			]
		}
	],
	"textures":[
		{
			"sampler":0,
			"source":0
		},
		{
			"sampler":0,
			"source":1
		},
		{
			"sampler":0,
			"source":2
		},
		{
			"sampler":0,
			"source":3
		},
		{
			"sampler":0,
			"source":4
		},
		{
			"sampler":0,
			"source":5
		},
		{
			"sampler":0,
			"source":6
		},
		{
			"sampler":0,
			"source":7
		},
		{
			"sampler":0,
			"source":8
		}
	],
	"images":[
		{
			"mimeType":"image/png",
			"name":"ZCWL_05ATanKe1_N",
			"uri":"ZCWL_05ATanKe1_N.png"
		},
		{
			"mimeType":"image/jpeg",
			"name":"ZCWL_05ATanKe1_BaseColor.png",
			"uri":"ZCWL_05ATanKe1_BaseColor_png.jpg"
		},
		{
			"mimeType":"image/png",
			"name":"ZCWL_05ATanKe1_M-ZCWL_05ATanKe1_R",
			"uri":"ZCWL_05ATanKe1_M-ZCWL_05ATanKe1_R.png"
		},
		{
			"mimeType":"image/png",
			"name":"ZCWL_05ATanKe2_N",
			"uri":"ZCWL_05ATanKe2_N.png"
		},
		{
			"mimeType":"image/jpeg",
			"name":"ZCWL_05ATanKe2_BaseColor.png",
			"uri":"ZCWL_05ATanKe2_BaseColor_png.jpg"
		},
		{
			"mimeType":"image/png",
			"name":"ZCWL_05ATanKe2_M-ZCWL_05ATanKe2_R",
			"uri":"ZCWL_05ATanKe2_M-ZCWL_05ATanKe2_R.png"
		},
		{
			"mimeType":"image/png",
			"name":"ZCWL_05ATanKe3_N",
			"uri":"ZCWL_05ATanKe3_N.png"
		},
		{
			"mimeType":"image/png",
			"name":"ZCWL_05ATanKe3_BaseColor.png",
			"uri":"ZCWL_05ATanKe3_BaseColor_png.png"
		},
		{
			"mimeType":"image/png",
			"name":"ZCWL_05ATanKe3_M-ZCWL_05ATanKe3_R",
			"uri":"ZCWL_05ATanKe3_M-ZCWL_05ATanKe3_R.png"
		}
	],
	"accessors":[
		{
			"bufferView":0,
			"componentType":5126,
			"count":3391,
			"max":[
				158.56207275390625,
				103.23138427734375,
				10.439834594726562
			],
			"min":[
				-520.4967651367188,
				-97.00760650634766,
				-110.4172592163086
			],
			"type":"VEC3"
		},
		{
			"bufferView":1,
			"componentType":5126,
			"count":3391,
			"type":"VEC3"
		},
		{
			"bufferView":2,
			"componentType":5126,
			"count":3391,
			"type":"VEC2"
		},
		{
			"bufferView":3,
			"componentType":5126,
			"count":3391,
			"type":"VEC2"
		},
		{
			"bufferView":4,
			"componentType":5121,
			"count":3391,
			"normalized":true,
			"type":"VEC4"
		},
		{
			"bufferView":5,
			"componentType":5126,
			"count":3391,
			"type":"VEC3"
		},
		{
			"bufferView":6,
			"componentType":5123,
			"count":6420,
			"type":"SCALAR"
		},
		{
			"bufferView":7,
			"componentType":5126,
			"count":1675,
			"max":[
				-61.7537841796875,
				94.18458557128906,
				-8.386207580566406
			],
			"min":[
				-520.23388671875,
				-87.99087524414062,
				-107.28575897216797
			],
			"type":"VEC3"
		},
		{
			"bufferView":8,
			"componentType":5126,
			"count":1675,
			"type":"VEC3"
		},
		{
			"bufferView":9,
			"componentType":5126,
			"count":1675,
			"type":"VEC2"
		},
		{
			"bufferView":10,
			"componentType":5126,
			"count":1675,
			"type":"VEC2"
		},
		{
			"bufferView":11,
			"componentType":5121,
			"count":1675,
			"normalized":true,
			"type":"VEC4"
		},
		{
			"bufferView":12,
			"componentType":5126,
			"count":1675,
			"type":"VEC3"
		},
		{
			"bufferView":13,
			"componentType":5123,
			"count":4212,
			"type":"SCALAR"
		},
		{
			"bufferView":14,
			"componentType":5126,
			"count":5642,
			"max":[
				392.550048828125,
				148.24679565429688,
				3.0517578125e-05
			],
			"min":[
				-239.014892578125,
				-144.85763549804688,
				-202.0059051513672
			],
			"type":"VEC3"
		},
		{
			"bufferView":15,
			"componentType":5126,
			"count":5642,
			"type":"VEC3"
		},
		{
			"bufferView":16,
			"componentType":5126,
			"count":5642,
			"type":"VEC2"
		},
		{
			"bufferView":17,
			"componentType":5126,
			"count":5642,
			"type":"VEC2"
		},
		{
			"bufferView":18,
			"componentType":5121,
			"count":5642,
			"normalized":true,
			"type":"VEC4"
		},
		{
			"bufferView":19,
			"componentType":5126,
			"count":5642,
			"type":"VEC3"
		},
		{
			"bufferView":20,
			"componentType":5123,
			"count":11034,
			"type":"SCALAR"
		},
		{
			"bufferView":21,
			"componentType":5126,
			"count":8256,
			"max":[
				403.06280517578125,
				164.39151000976562,
				-27.121841430664062
			],
			"min":[
				-403.06280517578125,
				-164.39154052734375,
				-225.0358123779297
			],
			"type":"VEC3"
		},
		{
			"bufferView":22,
			"componentType":5126,
			"count":8256,
			"type":"VEC3"
		},
		{
			"bufferView":23,
			"componentType":5126,
			"count":8256,
			"type":"VEC2"
		},
		{
			"bufferView":24,
			"componentType":5126,
			"count":8256,
			"type":"VEC2"
		},
		{
			"bufferView":25,
			"componentType":5121,
			"count":8256,
			"normalized":true,
			"type":"VEC4"
		},
		{
			"bufferView":26,
			"componentType":5126,
			"count":8256,
			"type":"VEC3"
		},
		{
			"bufferView":27,
			"componentType":5123,
			"count":16542,
			"type":"SCALAR"
		},
		{
			"bufferView":28,
			"componentType":5126,
			"count":16,
			"max":[
				225.87704467773438,
				153.12786865234375,
				-128.13304138183594
			],
			"min":[
				-211.52484130859375,
				-149.54429626464844,
				-202.81236267089844
			],
			"type":"VEC3"
		},
		{
			"bufferView":29,
			"componentType":5126,
			"count":16,
			"type":"VEC3"
		},
		{
			"bufferView":30,
			"componentType":5126,
			"count":16,
			"type":"VEC2"
		},
		{
			"bufferView":31,
			"componentType":5126,
			"count":16,
			"type":"VEC2"
		},
		{
			"bufferView":32,
			"componentType":5121,
			"count":16,
			"normalized":true,
			"type":"VEC4"
		},
		{
			"bufferView":33,
			"componentType":5126,
			"count":16,
			"type":"VEC3"
		},
		{
			"bufferView":34,
			"componentType":5123,
			"count":24,
			"type":"SCALAR"
		},
		{
			"bufferView":35,
			"componentType":5126,
			"count":2,
			"max":[
				2.5
			],
			"min":[
				0.03333333333333333
			],
			"type":"SCALAR"
		},
		{
			"bufferView":36,
			"componentType":5126,
			"count":2,
			"type":"VEC3"
		},
		{
			"bufferView":37,
			"componentType":5126,
			"count":2,
			"type":"VEC4"
		},
		{
			"bufferView":38,
			"componentType":5126,
			"count":2,
			"type":"VEC3"
		},
		{
			"bufferView":39,
			"componentType":5126,
			"count":2,
			"max":[
				5.033333333333333
			],
			"min":[
				0.03333333333333333
			],
			"type":"SCALAR"
		},
		{
			"bufferView":40,
			"componentType":5126,
			"count":2,
			"type":"VEC3"
		},
		{
			"bufferView":41,
			"componentType":5126,
			"count":151,
			"max":[
				5.033333333333333
			],
			"min":[
				0.03333333333333333
			],
			"type":"SCALAR"
		},
		{
			"bufferView":42,
			"componentType":5126,
			"count":151,
			"type":"VEC4"
		},
		{
			"bufferView":43,
			"componentType":5126,
			"count":2,
			"type":"VEC3"
		}
	],
	"bufferViews":[
		{
			"buffer":0,
			"byteLength":40692,
			"byteOffset":0,
			"target":34962
		},
		{
			"buffer":0,
			"byteLength":40692,
			"byteOffset":40692,
			"target":34962
		},
		{
			"buffer":0,
			"byteLength":27128,
			"byteOffset":81384,
			"target":34962
		},
		{
			"buffer":0,
			"byteLength":27128,
			"byteOffset":108512,
			"target":34962
		},
		{
			"buffer":0,
			"byteLength":13564,
			"byteOffset":135640,
			"target":34962
		},
		{
			"buffer":0,
			"byteLength":40692,
			"byteOffset":149204,
			"target":34962
		},
		{
			"buffer":0,
			"byteLength":12840,
			"byteOffset":189896,
			"target":34963
		},
		{
			"buffer":0,
			"byteLength":20100,
			"byteOffset":202736,
			"target":34962
		},
		{
			"buffer":0,
			"byteLength":20100,
			"byteOffset":222836,
			"target":34962
		},
		{
			"buffer":0,
			"byteLength":13400,
			"byteOffset":242936,
			"target":34962
		},
		{
			"buffer":0,
			"byteLength":13400,
			"byteOffset":256336,
			"target":34962
		},
		{
			"buffer":0,
			"byteLength":6700,
			"byteOffset":269736,
			"target":34962
		},
		{
			"buffer":0,
			"byteLength":20100,
			"byteOffset":276436,
			"target":34962
		},
		{
			"buffer":0,
			"byteLength":8424,
			"byteOffset":296536,
			"target":34963
		},
		{
			"buffer":0,
			"byteLength":67704,
			"byteOffset":304960,
			"target":34962
		},
		{
			"buffer":0,
			"byteLength":67704,
			"byteOffset":372664,
			"target":34962
		},
		{
			"buffer":0,
			"byteLength":45136,
			"byteOffset":440368,
			"target":34962
		},
		{
			"buffer":0,
			"byteLength":45136,
			"byteOffset":485504,
			"target":34962
		},
		{
			"buffer":0,
			"byteLength":22568,
			"byteOffset":530640,
			"target":34962
		},
		{
			"buffer":0,
			"byteLength":67704,
			"byteOffset":553208,
			"target":34962
		},
		{
			"buffer":0,
			"byteLength":22068,
			"byteOffset":620912,
			"target":34963
		},
		{
			"buffer":0,
			"byteLength":99072,
			"byteOffset":642980,
			"target":34962
		},
		{
			"buffer":0,
			"byteLength":99072,
			"byteOffset":742052,
			"target":34962
		},
		{
			"buffer":0,
			"byteLength":66048,
			"byteOffset":841124,
			"target":34962
		},
		{
			"buffer":0,
			"byteLength":66048,
			"byteOffset":907172,
			"target":34962
		},
		{
			"buffer":0,
			"byteLength":33024,
			"byteOffset":973220,
			"target":34962
		},
		{
			"buffer":0,
			"byteLength":99072,
			"byteOffset":1006244,
			"target":34962
		},
		{
			"buffer":0,
			"byteLength":33084,
			"byteOffset":1105316,
			"target":34963
		},
		{
			"buffer":0,
			"byteLength":192,
			"byteOffset":1138400,
			"target":34962
		},
		{
			"buffer":0,
			"byteLength":192,
			"byteOffset":1138592,
			"target":34962
		},
		{
			"buffer":0,
			"byteLength":128,
			"byteOffset":1138784,
			"target":34962
		},
		{
			"buffer":0,
			"byteLength":128,
			"byteOffset":1138912,
			"target":34962
		},
		{
			"buffer":0,
			"byteLength":64,
			"byteOffset":1139040,
			"target":34962
		},
		{
			"buffer":0,
			"byteLength":192,
			"byteOffset":1139104,
			"target":34962
		},
		{
			"buffer":0,
			"byteLength":48,
			"byteOffset":1139296,
			"target":34963
		},
		{
			"buffer":0,
			"byteLength":8,
			"byteOffset":1139344
		},
		{
			"buffer":0,
			"byteLength":24,
			"byteOffset":1139352
		},
		{
			"buffer":0,
			"byteLength":32,
			"byteOffset":1139376
		},
		{
			"buffer":0,
			"byteLength":24,
			"byteOffset":1139408
		},
		{
			"buffer":0,
			"byteLength":8,
			"byteOffset":1139432
		},
		{
			"buffer":0,
			"byteLength":24,
			"byteOffset":1139440
		},
		{
			"buffer":0,
			"byteLength":604,
			"byteOffset":1139464
		},
		{
			"buffer":0,
			"byteLength":2416,
			"byteOffset":1140068
		},
		{
			"buffer":0,
			"byteLength":24,
			"byteOffset":1142484
		}
	],
	"samplers":[
		{
			"magFilter":9729,
			"minFilter":9987
		}
	],
	"buffers":[
		{
			"byteLength":1142508,
			"uri":"ZCWL_05ATanKe_CheShen.bin"
		}
	]
}
