<?xml version="1.0" encoding="UTF-8"?>
<svg width="1920" height="60" viewBox="0 0 1920 60" xmlns="http://www.w3.org/2000/svg">
  <defs>
    <linearGradient id="footerGradient" x1="0%" y1="0%" x2="100%" y2="0%">
      <stop offset="0%" style="stop-color:#1a3a6a;stop-opacity:1" />
      <stop offset="50%" style="stop-color:#2a5ca0;stop-opacity:1" />
      <stop offset="100%" style="stop-color:#1a3a6a;stop-opacity:1" />
    </linearGradient>
  </defs>
  <rect width="1920" height="60" fill="url(#footerGradient)"/>
  
  <!-- Left corner elements -->
  <path d="M0,60 L100,60 L120,40 L100,20 L120,0 L0,0 Z" fill="#0c1c36" opacity="0.9"/>
  <path d="M120,60 L200,60 L220,40 L200,20 L220,0 L120,0 L100,20 L120,40 Z" fill="#0c1c36" opacity="0.7"/>
  <rect x="220" y="50" width="100" height="10" fill="#0c1c36" opacity="0.6"/>
  <rect x="320" y="55" width="200" height="5" fill="#0c1c36" opacity="0.5"/>
  
  <!-- Right corner elements -->
  <path d="M1920,60 L1820,60 L1800,40 L1820,20 L1800,0 L1920,0 Z" fill="#0c1c36" opacity="0.9"/>
  <path d="M1800,60 L1720,60 L1700,40 L1720,20 L1700,0 L1800,0 L1820,20 L1800,40 Z" fill="#0c1c36" opacity="0.7"/>
  <rect x="1600" y="50" width="100" height="10" fill="#0c1c36" opacity="0.6"/>
  <rect x="1400" y="55" width="200" height="5" fill="#0c1c36" opacity="0.5"/>
  
  <!-- Tech elements -->
  <rect x="600" y="53" width="720" height="2" fill="#4a7cc0" opacity="0.8"/>
  <rect x="600" y="49" width="720" height="1" fill="#4a7cc0" opacity="0.6"/>
  
  <rect x="600" y="8" width="720" height="2" fill="#4a7cc0" opacity="0.8"/>
  <rect x="600" y="14" width="720" height="1" fill="#4a7cc0" opacity="0.6"/>
  
  <!-- Center elements -->
  <rect x="900" y="15" width="120" height="30" fill="#0c1c36" opacity="0.7"/>
  <rect x="910" y="20" width="100" height="20" fill="#2a5ca0" opacity="0.9"/>
  
  <!-- Tech dots and lines -->
  <circle cx="500" cy="50" r="3" fill="#4a7cc0"/>
  <circle cx="520" cy="50" r="3" fill="#4a7cc0"/>
  <circle cx="540" cy="50" r="3" fill="#4a7cc0"/>
  
  <circle cx="1420" cy="50" r="3" fill="#4a7cc0"/>
  <circle cx="1400" cy="50" r="3" fill="#4a7cc0"/>
  <circle cx="1380" cy="50" r="3" fill="#4a7cc0"/>
  
  <!-- Diagonal lines -->
  <line x1="250" y1="60" x2="270" y2="40" stroke="#4a7cc0" stroke-width="1"/>
  <line x1="270" y1="40" x2="250" y2="20" stroke="#4a7cc0" stroke-width="1"/>
  <line x1="250" y1="20" x2="270" y2="0" stroke="#4a7cc0" stroke-width="1"/>
  
  <line x1="1670" y1="60" x2="1650" y2="40" stroke="#4a7cc0" stroke-width="1"/>
  <line x1="1650" y1="40" x2="1670" y2="20" stroke="#4a7cc0" stroke-width="1"/>
  <line x1="1670" y1="20" x2="1650" y2="0" stroke="#4a7cc0" stroke-width="1"/>
</svg>
