<?xml version="1.0" encoding="UTF-8"?>
<svg width="1920" height="60" viewBox="0 0 1920 60" xmlns="http://www.w3.org/2000/svg">
  <defs>
    <linearGradient id="headerGradient" x1="0%" y1="0%" x2="100%" y2="0%">
      <stop offset="0%" style="stop-color:#1a3a6a;stop-opacity:1" />
      <stop offset="50%" style="stop-color:#2a5ca0;stop-opacity:1" />
      <stop offset="100%" style="stop-color:#1a3a6a;stop-opacity:1" />
    </linearGradient>
  </defs>
  <rect width="1920" height="60" fill="url(#headerGradient)"/>
  
  <!-- Left corner elements -->
  <path d="M0,0 L100,0 L120,20 L100,40 L120,60 L0,60 Z" fill="#0c1c36" opacity="0.9"/>
  <path d="M120,0 L200,0 L220,20 L200,40 L220,60 L120,60 L100,40 L120,20 Z" fill="#0c1c36" opacity="0.7"/>
  <rect x="220" y="0" width="100" height="10" fill="#0c1c36" opacity="0.6"/>
  <rect x="320" y="0" width="200" height="5" fill="#0c1c36" opacity="0.5"/>
  
  <!-- Right corner elements -->
  <path d="M1920,0 L1820,0 L1800,20 L1820,40 L1800,60 L1920,60 Z" fill="#0c1c36" opacity="0.9"/>
  <path d="M1800,0 L1720,0 L1700,20 L1720,40 L1700,60 L1800,60 L1820,40 L1800,20 Z" fill="#0c1c36" opacity="0.7"/>
  <rect x="1600" y="0" width="100" height="10" fill="#0c1c36" opacity="0.6"/>
  <rect x="1400" y="0" width="200" height="5" fill="#0c1c36" opacity="0.5"/>
  
  <!-- Tech elements -->
  <rect x="600" y="5" width="720" height="2" fill="#4a7cc0" opacity="0.8"/>
  <rect x="600" y="10" width="720" height="1" fill="#4a7cc0" opacity="0.6"/>
  
  <rect x="600" y="50" width="720" height="2" fill="#4a7cc0" opacity="0.8"/>
  <rect x="600" y="45" width="720" height="1" fill="#4a7cc0" opacity="0.6"/>
  
  <!-- Center elements -->
  <rect x="900" y="15" width="120" height="30" fill="#0c1c36" opacity="0.7"/>
  <rect x="910" y="20" width="100" height="20" fill="#2a5ca0" opacity="0.9"/>
  
  <!-- Tech dots and lines -->
  <circle cx="500" cy="10" r="3" fill="#4a7cc0"/>
  <circle cx="520" cy="10" r="3" fill="#4a7cc0"/>
  <circle cx="540" cy="10" r="3" fill="#4a7cc0"/>
  
  <circle cx="1420" cy="10" r="3" fill="#4a7cc0"/>
  <circle cx="1400" cy="10" r="3" fill="#4a7cc0"/>
  <circle cx="1380" cy="10" r="3" fill="#4a7cc0"/>
  
  <!-- Diagonal lines -->
  <line x1="250" y1="0" x2="270" y2="20" stroke="#4a7cc0" stroke-width="1"/>
  <line x1="270" y1="20" x2="250" y2="40" stroke="#4a7cc0" stroke-width="1"/>
  <line x1="250" y1="40" x2="270" y2="60" stroke="#4a7cc0" stroke-width="1"/>
  
  <line x1="1670" y1="0" x2="1650" y2="20" stroke="#4a7cc0" stroke-width="1"/>
  <line x1="1650" y1="20" x2="1670" y2="40" stroke="#4a7cc0" stroke-width="1"/>
  <line x1="1670" y1="40" x2="1650" y2="60" stroke="#4a7cc0" stroke-width="1"/>
</svg>
